<?xml version="1.0"?>
<svg version="1.1" xmlns="http://www.w3.org/2000/svg" width="200px" height="65px"><path fill="#3237c7" d="M18.0126953125,26.4072265625q0-1.162109375,0.3984375-1.560546875t1.1123046875-0.3984375q0.19921875,0,0.42333984375,0.033203125t0.42333984375,0.099609375q1.1123046875-0.2158203125,2.1083984375-0.2158203125q1.6103515625,0,2.921875,0.564453125q2.1083984375,0.896484375,3.486328125,2.65625t2.025390625,4.1337890625t0.6474609375,4.8642578125q0,1.39453125-0.19091796875,2.9052734375t-0.73876953125,2.8056640625q-0.4814453125,1.162109375-1.328125,2.43212890625t-1.91748046875,2.4072265625t-2.3076171875,1.9921875t-2.49853515625,1.15380859375l0,0.1328125q0,0.33203125-0.17431640625,0.53955078125t-0.42333984375,0.3154296875t-0.57275390625,0.14111328125t-0.60595703125,0.033203125q-0.166015625,0-0.47314453125-0.033203125t-0.59765625-0.12451171875t-0.48974609375-0.24072265625t-0.19921875-0.4150390625q0-3.021484375-0.15771484375-6.05126953125t-0.35693359375-6.0595703125t-0.35693359375-6.05126953125t-0.15771484375-6.0595703125z M21.150390625,25.560546875q0.166015625,1.59375,0.2158203125,3.17919921875t0.1494140625,3.17919921875q0.265625,4.1171875,0.6142578125,8.19287109375t0.4150390625,8.19287109375q1.59375-1.0458984375,2.73095703125-2.390625t1.86767578125-2.921875t1.07080078125-3.31201171875t0.34033203125-3.57763671875q0-1.328125-0.232421875-2.921875t-0.796875-3.0712890625t-1.51904296875-2.6728515625t-2.38232421875-1.7099609375q-0.298828125-0.099609375-0.72216796875-0.166015625t-1.35302734375-0.06640625q-0.099609375,0-0.19921875,0.033203125t-0.19921875,0.033203125z M34.940810546875,43.3076171875q0-1.12890625,0.30712890625-2.1748046875t0.92138671875-1.86767578125t1.53564453125-1.3115234375t2.13330078125-0.48974609375q0.7470703125,0,1.65185546875,0.22412109375t1.70166015625,0.6640625t1.328125,1.12060546875t0.53125,1.560546875q0,0.4150390625-0.14111328125,0.630859375t-0.57275390625,0.2158203125l-0.1826171875-0.033203125q0.4814453125,1.294921875,0.830078125,2.65625t0.6806640625,2.72265625q0.1328125,0.265625,0.19921875,0.47314453125t0.06640625,0.40673828125q0,0.265625-0.1494140625,0.43994140625t-0.39013671875,0.25732421875t-0.498046875,0.1162109375t-0.45654296875,0.033203125q-0.7138671875,0-1.07080078125-0.2490234375t-0.5146484375-0.6806640625t-0.19091796875-0.97119140625t-0.1328125-1.08740234375q-0.19921875,0.6474609375-0.52294921875,1.26171875t-0.763671875,1.10400390625t-1.03759765625,0.7802734375t-1.3447265625,0.29052734375q-1.095703125,0-1.8427734375-0.630859375t-1.20361328125-1.55224609375t-0.6640625-1.96728515625t-0.20751953125-1.9423828125z M37.298232421875,43.0751953125q0,0.6142578125,0.0830078125,1.294921875t0.27392578125,1.3447265625t0.48974609375,1.25341796875t0.7470703125,1.03759765625q0.8134765625-0.8798828125,1.20361328125-2.1416015625t0.697265625-2.43212890625t0.697265625-2.0087890625t1.20361328125-0.83837890625q0.5146484375,0,0.86328125,0.1826171875q-0.166015625-0.4150390625-0.5478515625-0.80517578125t-0.85498046875-0.7138671875t-0.9794921875-0.53125t-0.95458984375-0.20751953125q-0.1328125,0-0.30712890625,0.04150390625t-0.27392578125,0.00830078125q-0.6806640625,0.19921875-1.12060546875,0.68896484375t-0.7138671875,1.15380859375t-0.39013671875,1.361328125t-0.1162109375,1.3115234375z M49.32888671875,42.9091796875q0-1.52734375,0.35693359375-2.99658203125t0.60595703125-2.93017578125q0.06640625-0.3818359375,0.52294921875-0.47314453125t0.77197265625-0.09130859375q0.5478515625,0,0.8798828125,0.166015625q0.1328125,0.06640625,0.2490234375,0.1494140625t0.1162109375,0.2158203125q0,1.427734375-0.34033203125,2.7890625t-0.34033203125,2.888671875q0,0.5146484375,0.07470703125,0.97119140625t0.14111328125,0.90478515625l0.099609375,0.4814453125q0,0.1328125,0.0166015625,0.232421875t0.0498046875,0.232421875q0,0.298828125-0.42333984375,0.40673828125t-0.73876953125,0.10791015625q-0.4814453125,0-0.88818359375-0.19091796875t-0.63916015625-0.65576171875l-0.232421875-0.4814453125q-0.19921875-0.3818359375-0.19921875-0.85498046875t-0.0830078125-0.87158203125z M50.39138671875,32.9150390625l0-0.3154296875q0-0.7802734375,0.39013671875-1.39453125t1.17041015625-0.6142578125q0.099609375,0,0.19091796875,0.0166015625t0.19091796875,0.0166015625q0.19921875,0.033203125,0.52294921875,0.15771484375t0.32373046875,0.39013671875l0,0.033203125q-0.06640625,0.1328125-0.0830078125,0.27392578125t-0.0830078125,0.24072265625l0.033203125-0.033203125q-0.19921875,0.5146484375-0.32373046875,0.830078125t-0.27392578125,0.50634765625t-0.37353515625,0.27392578125t-0.63916015625,0.0830078125q-0.06640625,0-0.232421875-0.0166015625t-0.35693359375-0.06640625t-0.32373046875-0.1328125t-0.1328125-0.2490234375z M56.578291015625,49.201171875q0-0.4814453125,0.04150390625-1.0126953125t0.07470703125-0.99609375l0.099609375-2.490234375q0.166015625-2.98828125,0.40673828125-5.876953125t0.40673828125-5.84375q0.099609375-1.626953125,0.1494140625-3.19580078125t0.1494140625-3.19580078125q-0.06640625-0.1328125-0.06640625-0.1826171875q0-0.232421875,0.17431640625-0.365234375t0.40673828125-0.22412109375t0.48974609375-0.12451171875t0.39013671875-0.033203125l0.3818359375,0q0.5146484375,0.06640625,0.7470703125,0.32373046875t0.298828125,0.6142578125t0.033203125,0.763671875t-0.033203125,0.75537109375q0,2.4072265625-0.1162109375,4.90576171875t-0.265625,5.013671875t-0.27392578125,5.0302734375t-0.12451171875,4.97216796875l0,1.162109375q0,0.7802734375-0.43994140625,1.029296875t-1.22021484375,0.2490234375q-0.6806640625,0-1.1953125-0.298828125t-0.5146484375-0.9794921875z M64.1929296875,39.60546875q0-0.4814453125,0.27392578125-0.630859375t0.68896484375-0.1494140625q0.6806640625,0,1.03759765625,0.25732421875t0.35693359375,0.90478515625q0,0.7802734375,0.1162109375,1.95068359375t0.34033203125,2.2744140625t0.53125,1.90087890625t0.63916015625,0.796875q0.6142578125,0,1.08740234375-0.9462890625t0.830078125-2.32421875t0.6142578125-2.96337890625t0.35693359375-2.83056640625q0.06640625-0.6806640625,0.32373046875-0.98779296875t0.93798828125-0.30712890625q0.7802734375,0,1.13720703125,0.6474609375t0.45654296875,1.59375q0.0830078125,0.8134765625,0.0830078125,1.693359375l0,0.2822265625l0,0.6640625q0,0.630859375,0.0166015625,1.12890625l0.4814453125,10.1767578125l0.06640625,1.693359375q0.033203125,0.232421875,0.0498046875,0.43994140625t0.0166015625,0.43994140625q0,0.9462890625-0.40673828125,1.22021484375t-1.31982421875,0.27392578125q-0.19921875,0-0.50634765625-0.033203125t-0.59765625-0.1328125t-0.498046875-0.27392578125t-0.20751953125-0.43994140625l0.06640625-0.166015625q0.0830078125-0.99609375,0.0830078125-2.091796875l0-0.3486328125q-0.0166015625-1.294921875-0.0830078125-2.623046875t-0.1494140625-2.65625t-0.0830078125-2.556640625q-0.232421875,0.5146484375-0.53955078125,1.0625t-0.7138671875,0.98779296875t-0.92138671875,0.73046875t-1.162109375,0.29052734375q-0.9462890625,0-1.560546875-0.498046875t-0.95458984375-1.294921875t-0.48974609375-1.78466796875t-0.19921875-1.9755859375t-0.06640625-1.88427734375t-0.1328125-1.5107421875z"/><path fill="#" d="M76.71484375,29.16015625q0-0.140625,0.134765625-0.2109375t0.29296875-0.10546875t0.287109375-0.03515625l0.12890625,0q0.41015625,0,0.591796875,0.1875t0.439453125,0.48046875q1.7578125,2.54296875,3.22265625,5.232421875t2.82421875,5.443359375q0.1171875-3.2109375,0.240234375-6.462890625t0.310546875-6.451171875q0-0.140625,0.134765625-0.234375t0.3046875-0.140625t0.345703125-0.05859375t0.26953125-0.01171875q0.140625,0,0.310546875,0.01171875t0.33984375,0.0703125t0.28125,0.140625t0.111328125,0.22265625q0.046875,0.50390625,0.052734375,1.013671875t0.005859375,1.013671875q0,3.7734375-0.1640625,7.39453125t-0.1640625,7.3125l0,0.84375q0,0.046875-0.046875,0.140625q0.0234375,0.09375,0.0703125,0.205078125t0.046875,0.158203125q0,0.1875-0.193359375,0.28125t-0.421875,0.146484375t-0.404296875,0.052734375t-0.12890625,0q-0.59765625,0-1.0078125-0.328125t-0.41015625-0.78515625q-0.8671875-1.9453125-1.728515625-3.861328125t-1.798828125-3.814453125q-0.59765625-1.1953125-1.201171875-2.396484375t-1.294921875-2.326171875q0.0234375,0.0234375,0.0234375,0.0703125q0.1171875,1.171875,0.251953125,2.337890625t0.205078125,2.337890625q0.046875,1.0078125,0.10546875,2.0390625t0.1875,2.0390625q0,0.38671875-0.240234375,0.4921875t-0.556640625,0.10546875q-0.26953125,0-0.509765625-0.0703125t-0.287109375-0.3515625q0-1.078125-0.08203125-2.291015625t-0.15234375-2.443359375q-0.1171875-1.62890625-0.310546875-3.310546875t-0.193359375-3.287109375q0-0.0703125,0.01171875-0.146484375t0.01171875-0.169921875q-0.0703125-0.1171875-0.158203125-0.24609375t-0.087890625-0.234375z M89.7305078125,40.609375q0-0.8203125,0.181640625-1.93359375t0.615234375-2.109375t1.142578125-1.693359375t1.787109375-0.697265625q1.0078125,0,1.51171875,0.580078125t0.50390625,1.564453125q0,0.64453125-0.240234375,1.412109375t-0.685546875,1.453125t-1.0546875,1.142578125t-1.359375,0.45703125l-0.3046875-0.0234375q0,0.31640625,0.09375,0.849609375t0.275390625,1.060546875t0.46875,0.92578125t0.697265625,0.3984375q0.59765625,0,1.1484375-0.48046875t1.04296875-1.06640625t0.9140625-1.06640625t0.7734375-0.48046875q0.1875,0,0.38671875,0.05859375t0.22265625,0.328125q0,0.1640625-0.087890625,0.26953125t-0.158203125,0.234375q-0.36328125,0.62109375-0.791015625,1.18359375t-0.966796875,1.01953125t-1.177734375,0.720703125t-1.412109375,0.263671875q-1.0078125,0-1.67578125-0.357421875t-1.078125-0.9609375t-0.591796875-1.39453125t-0.181640625-1.658203125z M91.8281640625,39.71875l0.328125,0.29296875q0.234375,0.2109375,0.46875,0.09375t0.421875-0.427734375t0.345703125-0.767578125t0.28125-0.9375t0.181640625-0.9375t0.05859375-0.76171875l0-0.3984375t-0.03515625-0.421875t-0.123046875-0.333984375t-0.275390625-0.169921875q-0.05859375-0.01171875-0.10546875-0.01171875q-0.3984375,0-0.6796875,0.50390625q-0.3046875,0.5625-0.4921875,1.365234375t-0.26953125,1.646484375t-0.10546875,1.265625z M99.546953125,41.06640625q0-0.43359375,0.017578125-1.271484375t0.123046875-1.705078125t0.345703125-1.5703125t0.720703125-0.90234375q0.1171875-0.046875,0.380859375-0.08203125t0.52734375-0.0234375t0.46875,0.09375t0.205078125,0.3046875q0,0.046875-0.046875,0.12890625t-0.24609375,0.2578125q-0.36328125,1.0078125-0.4453125,2.00390625t-0.08203125,2.05078125q0,0.62109375,0.041015625,1.2421875t0.134765625,1.25390625q0.1875-0.26953125,0.380859375-0.80859375t0.41015625-1.177734375t0.4453125-1.294921875t0.515625-1.1953125t0.6328125-0.890625t0.779296875-0.3515625q0.48046875,0,0.802734375,0.603515625t0.59765625,1.39453125t0.515625,1.60546875t0.580078125,1.248046875q0.1640625-0.1640625,0.263671875-0.427734375t0.158203125-0.568359375t0.0703125-0.603515625t0.01171875-0.509765625q0-0.52734375-0.158203125-1.142578125t-0.333984375-1.154296875t-0.333984375-0.908203125t-0.158203125-0.427734375q0-0.09375,0.099609375-0.15234375t0.228515625-0.09375t0.263671875-0.046875t0.205078125-0.01171875q0.43359375,0,0.744140625,0.48046875t0.4921875,1.11328125t0.263671875,1.283203125t0.08203125,1.013671875q0,0.45703125-0.0703125,0.97265625t-0.263671875,0.955078125t-0.568359375,0.732421875t-0.94921875,0.29296875q-0.69140625,0-1.13671875-0.38671875t-0.720703125-0.9375t-0.43359375-1.201171875t-0.298828125-1.177734375q-0.26953125,0.62109375-0.4921875,1.5703125t-0.5625,1.86328125t-0.8671875,1.55859375t-1.37109375,0.64453125t-1.201171875-0.416015625t-0.568359375-1.142578125l0.0234375,0.0234375q-0.140625-0.52734375-0.181640625-1.0546875t-0.041015625-1.0546875z M111.6485546875,37.10546875q0-0.48046875,0.28125-0.826171875t0.685546875-0.5625t0.884765625-0.322265625t0.890625-0.10546875q0.31640625,0,0.84375,0.09375t1.03125,0.28125t0.873046875,0.4921875t0.369140625,0.71484375q0,0.1875-0.140625,0.333984375t-0.29296875,0.146484375q-0.31640625,0-0.57421875-0.205078125t-0.533203125-0.43359375t-0.603515625-0.43359375t-0.73828125-0.205078125t-0.744140625,0.263671875t-0.333984375,0.697265625q0,0.71484375,0.50390625,1.400390625t1.107421875,1.44140625t1.107421875,1.587890625t0.50390625,1.83984375q0,0.43359375-0.181640625,0.732421875t-0.48046875,0.486328125t-0.673828125,0.287109375t-0.7265625,0.099609375q-0.38671875,0-0.90234375-0.181640625t-0.97265625-0.48046875t-0.767578125-0.697265625t-0.310546875-0.83203125q0-0.2109375,0.298828125-0.26953125t0.439453125-0.05859375q0.0703125,0,0.216796875,0.046875t0.287109375,0.10546875t0.251953125,0.12890625t0.087890625,0.15234375q0.1171875,0.140625,0.357421875,0.416015625t0.48046875,0.4453125t0.421875,0.123046875t0.181640625-0.52734375q0-0.9140625-0.4921875-1.681640625t-1.072265625-1.5t-1.072265625-1.453125t-0.4921875-1.541015625z M123.7580078125,27.82421875q0-0.1640625,0.228515625-0.251953125t0.298828125-0.087890625l0.43359375-0.0703125q0.43359375-0.0703125,0.87890625-0.123046875t0.8671875-0.099609375q1.48828125-0.1875,2.9765625-0.369140625t3-0.181640625q0.1171875,0,0.322265625,0.01171875t0.41015625,0.064453125t0.3515625,0.146484375t0.146484375,0.2578125q0,0.1171875-0.111328125,0.205078125t-0.263671875,0.134765625t-0.310546875,0.05859375t-0.251953125,0.01171875l-0.205078125,0t-0.205078125-0.046875q-0.62109375,0-1.224609375,0.05859375t-1.224609375,0.10546875q0.1640625,0.1875,0.17578125,0.52734375t0.0234375,0.5859375q0,4.1484375,0.05859375,8.25t0.10546875,8.28515625l0,0.0234375q-0.38671875,0.33984375-0.662109375,0.43359375t-0.556640625,0.09375q-0.26953125,0-0.544921875-0.099609375t-0.662109375-0.427734375l0-0.0234375l0.09375-9.19921875q0-0.9140625-0.0234375-2.015625t-0.0234375-2.232421875t0.03515625-2.185546875t0.1875-1.83984375q-0.69140625,0.0703125-1.46484375,0.2109375q-0.66796875,0.1171875-1.27734375,0.1171875l-0.2109375,0q-0.046875,0-0.275390625,0.01171875t-0.46875-0.01171875t-0.43359375-0.09375t-0.193359375-0.234375z M135.343984375,36.84765625q0-0.48046875,0.169921875-0.80859375t0.720703125-0.328125q0.2109375,0,0.52734375,0.064453125t0.36328125,0.322265625q0.1171875,0.69140625,0.12890625,1.5t0.08203125,1.5234375q0.26953125-0.52734375,0.69140625-1.13671875t0.9609375-1.125t1.171875-0.85546875t1.2890625-0.33984375q0.046875,0,0.17578125,0.03515625t0.240234375,0.099609375t0.134765625,0.146484375t-0.12890625,0.15234375q-0.046875,0.140625-0.19921875,0.169921875t-0.26953125,0.029296875q-0.0703125,0-0.22265625-0.05859375q-0.8671875,0.45703125-1.4765625,1.2421875t-0.99609375,1.740234375t-0.5625,2.015625t-0.17578125,2.068359375q0,0.50390625-0.228515625,0.609375t-0.732421875,0.10546875q-0.26953125,0-0.568359375-0.05859375t-0.416015625-0.375q-0.2109375-0.66796875-0.345703125-1.53515625t-0.205078125-1.787109375t-0.099609375-1.810546875t-0.029296875-1.60546875z M143.6721484375,40.12890625q0-0.796875,0.216796875-1.53515625t0.650390625-1.318359375t1.083984375-0.92578125t1.505859375-0.345703125q0.52734375,0,1.166015625,0.158203125t1.201171875,0.46875t0.9375,0.791015625t0.375,1.1015625q0,0.29296875-0.099609375,0.4453125t-0.404296875,0.15234375l-0.12890625-0.0234375q0.33984375,0.9140625,0.5859375,1.875t0.48046875,1.921875q0.09375,0.1875,0.140625,0.333984375t0.046875,0.287109375q0,0.1875-0.10546875,0.310546875t-0.275390625,0.181640625t-0.3515625,0.08203125t-0.322265625,0.0234375q-0.50390625,0-0.755859375-0.17578125t-0.36328125-0.48046875t-0.134765625-0.685546875t-0.09375-0.767578125q-0.140625,0.45703125-0.369140625,0.890625t-0.5390625,0.779296875t-0.732421875,0.55078125t-0.94921875,0.205078125q-0.7734375,0-1.30078125-0.4453125t-0.849609375-1.095703125t-0.46875-1.388671875t-0.146484375-1.37109375z M145.3362109375,39.96484375q0,0.43359375,0.05859375,0.9140625t0.193359375,0.94921875t0.345703125,0.884765625t0.52734375,0.732421875q0.57421875-0.62109375,0.849609375-1.51171875t0.4921875-1.716796875t0.4921875-1.41796875t0.849609375-0.591796875q0.36328125,0,0.609375,0.12890625q-0.1171875-0.29296875-0.38671875-0.568359375t-0.603515625-0.50390625t-0.69140625-0.375t-0.673828125-0.146484375q-0.09375,0-0.216796875,0.029296875t-0.193359375,0.005859375q-0.48046875,0.140625-0.791015625,0.486328125t-0.50390625,0.814453125t-0.275390625,0.9609375t-0.08203125,0.92578125z M153.8284375,39.89453125q0-0.84375,0.216796875-1.693359375t0.673828125-1.5234375t1.166015625-1.095703125t1.669921875-0.421875q0.41015625,0,0.90234375,0.099609375t0.908203125,0.31640625t0.703125,0.5625t0.287109375,0.849609375q0,0.31640625-0.1640625,0.421875t-0.43359375,0.10546875l-0.08203125-0.1171875t-0.228515625-0.298828125t-0.310546875-0.38671875t-0.31640625-0.345703125q-0.48046875-0.48046875-0.90234375-0.515625l-0.09375,0q-0.3515625,0-0.65625,0.2109375q-0.33984375,0.2578125-0.603515625,0.7265625t-0.439453125,0.99609375t-0.275390625,1.06640625t-0.099609375,0.890625q0,0.48046875,0.111328125,1.095703125t0.375,1.166015625t0.66796875,0.92578125t1.037109375,0.375q0.57421875,0,1.04296875-0.28125t0.896484375-0.626953125t0.837890625-0.62109375t0.84375-0.275390625q0.1875,0,0.380859375,0.046875t0.193359375,0.24609375l0,0.0703125q-0.2109375,0.55078125-0.71484375,0.97265625t-1.130859375,0.732421875t-1.30078125,0.462890625t-1.201171875,0.15234375q-0.984375,0-1.728515625-0.322265625t-1.236328125-0.884765625t-0.744140625-1.353515625t-0.251953125-1.728515625z M164.0550390625,44.88671875l0.24609375-0.29296875q-0.046875-1.96875-0.10546875-3.92578125t-0.05859375-3.890625q0-2.40234375,0.287109375-4.646484375t0.568359375-4.599609375q0.0234375-0.140625,0.134765625-0.228515625t0.275390625-0.146484375t0.333984375-0.08203125t0.310546875-0.0234375q0.1875,0,0.46875,0.0703125t0.5625,0.41015625q0,0.1171875,0.017578125,0.205078125t0.017578125,0.205078125q0,0.890625-0.240234375,1.91015625t-0.322265625,1.95703125q-0.09375,1.1484375-0.12890625,2.2734375t-0.03515625,2.28515625l0.0234375,1.03125q0.234375-0.29296875,0.66796875-0.75t0.9375-0.884765625t1.0078125-0.732421875t0.9140625-0.3046875q0.62109375,0,0.861328125,0.3515625t0.240234375,0.92578125q0,0.52734375-0.228515625,1.1015625t-0.59765625,1.119140625t-0.837890625,0.978515625t-0.92578125,0.64453125q0.62109375,0.7734375,1.271484375,1.4765625t1.423828125,1.32421875l0,0.26953125q-0.0234375,0.1171875-0.146484375,0.17578125t-0.26953125,0.09375t-0.287109375,0.052734375t-0.234375,0.017578125q-0.57421875,0-1.107421875-0.33984375t-0.99609375-0.83203125t-0.873046875-1.04296875t-0.75-0.9609375q0.0703125,1.34765625,0.158203125,2.689453125t0.087890625,2.689453125q0,0.1640625-0.146484375,0.275390625t-0.33984375,0.169921875t-0.392578125,0.08203125t-0.328125,0.0234375q-0.69140625,0-0.978515625-0.251953125t-0.486328125-0.873046875z M166.4573828125,39.3671875q0.29296875,0,0.697265625-0.251953125t0.837890625-0.626953125t0.80859375-0.791015625t0.603515625-0.791015625t0.228515625-0.603515625t-0.31640625-0.205078125q-0.1171875,0-0.48046875,0.33984375t-0.80859375,0.83203125t-0.890625,1.06640625t-0.6796875,1.03125z M173.543359375,40.609375q0-0.8203125,0.181640625-1.93359375t0.615234375-2.109375t1.142578125-1.693359375t1.787109375-0.697265625q1.0078125,0,1.51171875,0.580078125t0.50390625,1.564453125q0,0.64453125-0.240234375,1.412109375t-0.685546875,1.453125t-1.0546875,1.142578125t-1.359375,0.45703125l-0.3046875-0.0234375q0,0.31640625,0.09375,0.849609375t0.275390625,1.060546875t0.46875,0.92578125t0.697265625,0.3984375q0.59765625,0,1.1484375-0.48046875t1.04296875-1.06640625t0.9140625-1.06640625t0.7734375-0.48046875q0.1875,0,0.38671875,0.05859375t0.22265625,0.328125q0,0.1640625-0.087890625,0.26953125t-0.158203125,0.234375q-0.36328125,0.62109375-0.791015625,1.18359375t-0.966796875,1.01953125t-1.177734375,0.720703125t-1.412109375,0.263671875q-1.0078125,0-1.67578125-0.357421875t-1.078125-0.9609375t-0.591796875-1.39453125t-0.181640625-1.658203125z M175.641015625,39.71875l0.328125,0.29296875q0.234375,0.2109375,0.46875,0.09375t0.421875-0.427734375t0.345703125-0.767578125t0.28125-0.9375t0.181640625-0.9375t0.05859375-0.76171875l0-0.3984375t-0.03515625-0.421875t-0.123046875-0.333984375t-0.275390625-0.169921875q-0.05859375-0.01171875-0.10546875-0.01171875q-0.3984375,0-0.6796875,0.50390625q-0.3046875,0.5625-0.4921875,1.365234375t-0.26953125,1.646484375t-0.10546875,1.265625z M183.3363671875,36.84765625q0-0.48046875,0.169921875-0.80859375t0.720703125-0.328125q0.2109375,0,0.52734375,0.064453125t0.36328125,0.322265625q0.1171875,0.69140625,0.12890625,1.5t0.08203125,1.5234375q0.26953125-0.52734375,0.69140625-1.13671875t0.9609375-1.125t1.171875-0.85546875t1.2890625-0.33984375q0.046875,0,0.17578125,0.03515625t0.240234375,0.099609375t0.134765625,0.146484375t-0.12890625,0.15234375q-0.046875,0.140625-0.19921875,0.169921875t-0.26953125,0.029296875q-0.0703125,0-0.22265625-0.05859375q-0.8671875,0.45703125-1.4765625,1.2421875t-0.99609375,1.740234375t-0.5625,2.015625t-0.17578125,2.068359375q0,0.50390625-0.228515625,0.609375t-0.732421875,0.10546875q-0.26953125,0-0.568359375-0.05859375t-0.416015625-0.375q-0.2109375-0.66796875-0.345703125-1.53515625t-0.205078125-1.787109375t-0.099609375-1.810546875t-0.029296875-1.60546875z"/></svg>
